<svg width="1444" height="869" viewBox="0 0 1444 869" fill="none" xmlns="http://www.w3.org/2000/svg">
<rect width="1444" height="869" fill="white"/>
<path d="M673.61 802.67C938.966 802.67 1154.08 783.047 1154.08 758.84C1154.08 734.633 938.966 715.01 673.61 715.01C408.254 715.01 193.14 734.633 193.14 758.84C193.14 783.047 408.254 802.67 673.61 802.67Z" fill="#E6E7E8"/>
<path d="M59.2199 641.81C55.7399 636.73 52.3399 631.23 52.1299 625.16C51.3499 602.33 92.1599 594.72 92.4799 571.87C92.6499 559.38 80.3399 550.69 71.2399 541.74C62.1399 532.79 56.3799 516.16 67.2599 509.27C70.0799 507.48 73.5199 506.82 76.4899 505.28C86.2999 500.19 88.2699 486.99 84.6199 476.89C80.9699 466.79 73.2899 458.59 67.5199 449.44C44.9999 413.69 53.6999 368.23 63.0999 327.47C64.8599 319.85 69.9199 310.13 77.7999 312.13C82.6199 313.35 84.8899 318.51 86.4799 323.04C93.2799 342.36 100.08 361.67 106.88 380.99C109.78 389.22 114.39 398.85 123.4 399.83C141.35 401.78 144 369.5 161.91 367.28C173.61 377.07 174.48 394.04 172.97 408.85C171.46 423.66 168.64 439.46 175.64 452.73C182.64 466.01 204.78 472.38 213.47 460.05C225.12 476.92 205.6 501.39 215.74 519.14C222.49 530.96 239.47 534.09 247.49 545.16C254.26 554.51 252.98 566.96 251.78 578.28C246.06 632.58 243.46 702.85 176.34 719.9C127.56 732.28 82.7899 676.16 59.2199 641.81Z" fill="#37C1D3"/>
<path fill-rule="evenodd" clip-rule="evenodd" d="M56.8999 643.4C93.8799 697.28 129.25 724.47 162.27 724.47C167.25 724.47 172.17 723.85 177.03 722.59C241.816 706.141 248.299 641.198 253.509 589.009L253.51 589C253.86 585.46 254.21 581.97 254.57 578.54C255.79 566.91 257.17 553.72 249.75 543.48C245.62 537.78 239.48 534.11 233.55 530.57L233.544 530.566C227.276 526.828 221.359 523.298 218.17 517.71C213.75 509.97 215.7 500.53 217.77 490.53L217.773 490.517C220.062 479.461 222.427 468.036 215.78 458.42L213.49 455.11L211.17 458.4C207.53 463.56 201.51 463.98 198.25 463.77C190.09 463.24 181.63 458.04 178.12 451.39C172.3 440.35 173.78 427.01 175.22 414.1C175.41 412.42 175.59 410.76 175.76 409.1C177.91 388.06 173.97 373.67 163.71 365.09L162.77 364.31L161.56 364.46C151.621 365.69 145.911 374.708 140.872 382.667L140.87 382.67C135.71 390.81 131.25 397.82 123.7 397.01C116.06 396.18 111.95 386.92 109.52 380.03L89.1199 322.08C87.8699 318.52 85.2599 311.1 78.4799 309.38C75.5599 308.64 72.6399 309.09 70.0499 310.67C63.5999 314.6 60.9899 324.02 60.3499 326.81C50.3899 369.96 42.5599 415.08 65.1299 450.91C67.0599 453.96 69.1899 456.92 71.2599 459.78L71.2902 459.822C75.589 465.776 79.6454 471.395 81.9699 477.82C85.1699 486.69 83.5099 498.45 75.1899 502.76C74.0867 503.336 72.8501 503.788 71.5452 504.265L71.4499 504.3L71.2391 504.378C69.4138 505.053 67.5216 505.753 65.7499 506.88C61.6199 509.49 59.1599 513.52 58.6299 518.51C57.6499 527.74 63.2599 537.83 69.2599 543.73C70.8599 545.31 72.5599 546.88 74.2799 548.46L74.33 548.506C81.9344 555.532 89.7796 562.78 89.6599 571.83C89.5199 581.77 80.2699 588.71 70.4699 596.06L70.4695 596.06C59.8496 604.03 48.8699 612.27 49.3199 625.25C49.5599 632.16 53.3599 638.24 56.8999 643.4ZM175.65 717.17C140.99 725.98 102.61 700.08 61.5299 640.22C58.2999 635.5 55.1199 630.45 54.9499 625.06C54.6001 615.017 63.9368 608.01 73.8291 600.586L73.8499 600.57L73.8565 600.565C84.3145 592.717 95.1199 584.607 95.2899 571.91C95.4498 560.335 86.2386 551.838 78.1114 544.341L78.0999 544.33C76.4199 542.79 74.7699 541.27 73.2099 539.73C67.2499 533.87 63.5499 525.4 64.2199 519.12C64.5699 515.85 66.0999 513.33 68.7599 511.64C70.0645 510.816 71.6288 510.242 73.2831 509.636L73.3799 509.6L73.465 509.569C74.8882 509.049 76.3485 508.515 77.7799 507.77C89.2599 501.82 91.2299 486.93 87.2599 475.93C84.6599 468.74 80.1699 462.52 75.8199 456.51L75.7044 456.35C73.7303 453.61 71.6949 450.785 69.8999 447.94C48.4799 413.94 56.1499 370.09 65.8399 328.1C66.8599 323.68 69.3499 317.72 72.9899 315.5C74.3099 314.7 75.6599 314.49 77.1099 314.86C80.5099 315.72 82.3499 319.75 83.8399 323.98L104.24 381.93C107.17 390.25 112.32 401.46 123.11 402.63C134.179 403.8 139.989 394.621 145.629 385.712L145.63 385.71L145.635 385.703C150.163 378.555 154.462 371.77 161.07 370.28C169.07 377.69 172.05 390.24 170.18 408.56C170.01 410.2 169.83 411.85 169.64 413.51C168.11 427.26 166.53 441.48 173.16 454.04C177.59 462.43 187.76 468.75 197.9 469.4C203.89 469.79 209.09 468.18 212.91 464.84C215.884 471.906 214.127 480.416 212.281 489.357L212.27 489.41L212.265 489.433C210.077 500.006 207.814 510.937 213.29 520.52C217.213 527.379 224.037 531.457 230.637 535.401L230.67 535.42L230.737 535.46C236.402 538.845 241.763 542.049 245.2 546.8C251.36 555.3 250.15 566.83 248.98 577.979L248.98 577.98C248.62 581.42 248.27 584.92 247.92 588.47L247.918 588.489C242.618 641.554 236.613 701.692 175.65 717.17Z" fill="#1A4A67"/>
<path d="M20.73 682.95C18.63 680.78 16.48 678.32 16.19 675.31C15.51 668.25 24.43 664.84 31.36 663.37C38.29 661.9 46.9799 657.04 44.79 650.29C44.22 648.53 42.95 647.1 41.6399 645.8C34.9599 639.1 26.63 634.06 20.69 626.69C14.76 619.31 11.79 608.14 17.39 600.52C19 598.33 21.25 596.5 22.12 593.92C23.73 589.1 19.93 584.35 16.79 580.36C8.46995 569.79 -13.69 522.77 12.64 518.91C21.19 517.66 29.42 523.19 34.7 530.02C39.9799 536.86 43.1899 545.05 47.8699 552.3C65.24 579.23 96.2299 574.85 108.05 608.27C109.25 611.66 110.92 615.51 114.39 616.45C122.39 618.61 127.68 600.42 133.95 612.75C146.59 637.6 159.23 671.81 148.2 699.27C141.55 715.81 126.08 736.16 105.71 731.9C74.33 725.34 42.7299 705.74 20.73 682.95Z" fill="#1A4A67"/>
<path d="M108.54 708.7C107.86 708.7 107.2 708.32 106.87 707.67L50.4499 596.06C49.9799 595.14 50.3499 594.01 51.2799 593.54C52.1999 593.07 53.3299 593.44 53.7999 594.37L110.22 705.98C110.69 706.9 110.32 708.03 109.39 708.5C109.12 708.63 108.83 708.7 108.54 708.7Z" fill="white"/>
<path d="M70.17 632.78C69.9 632.78 69.62 632.72 69.36 632.6L34.05 615.78C33.12 615.33 32.72 614.22 33.16 613.28C33.6 612.35 34.73 611.95 35.66 612.39L70.98 629.21C71.91 629.66 72.31 630.77 71.87 631.71C71.54 632.39 70.87 632.78 70.17 632.78Z" fill="white"/>
<path d="M182 726.55C181.13 726.55 180.35 725.94 180.17 725.05L124.2 448.91C124 447.9 124.65 446.91 125.66 446.7C126.69 446.5 127.67 447.15 127.87 448.17L183.84 724.3C184.04 725.31 183.39 726.3 182.38 726.51C182.25 726.53 182.13 726.55 182 726.55Z" fill="white"/>
<path d="M144.71 534.76C144.45 534.76 144.19 534.71 143.94 534.6C143 534.18 142.58 533.06 143 532.12L166.81 479.23C167.24 478.28 168.35 477.87 169.29 478.29C170.23 478.71 170.65 479.83 170.23 480.77L146.42 533.66C146.1 534.35 145.42 534.76 144.71 534.76Z" fill="white"/>
<path d="M166.04 634.67C165.78 634.67 165.52 634.62 165.27 634.51C164.33 634.09 163.91 632.97 164.33 632.03L188.14 579.14C188.56 578.19 189.68 577.78 190.62 578.2C191.56 578.62 191.98 579.74 191.56 580.68L167.75 633.57C167.44 634.26 166.76 634.67 166.04 634.67Z" fill="white"/>
<path d="M150.78 588.58C150.51 588.58 150.24 588.52 149.98 588.4L98.51 564.1C97.58 563.66 97.17 562.54 97.62 561.61C98.06 560.67 99.18 560.27 100.12 560.72L151.59 585.02C152.52 585.46 152.93 586.58 152.48 587.51C152.16 588.18 151.49 588.58 150.78 588.58Z" fill="white"/>
<path d="M64.5599 683.35C89.6799 673.58 117.3 686.56 141.47 698.48C165.64 710.4 194.76 721.52 218.45 708.64C247.74 692.71 252.29 686.3 284.11 705.22C304.74 717.47 364.8 736.07 387.85 740.49C405.05 743.78 555.13 773.05 427.29 769.21C390.98 768.12 351.38 764.71 316.21 763.57C239.97 761.11 163.49 752.59 87.1299 756.11C69.9999 756.92 30.0099 774.07 15.4899 760.5C-4.7401 741.56 46.8899 690.22 64.5599 683.35Z" fill="white"/>
<path fill-rule="evenodd" clip-rule="evenodd" d="M427.22 772C435.15 772.24 441.91 772.35 447.67 772.35C480.5 772.35 480.89 768.84 481.21 765.93C481.55 762.87 482.34 755.7 388.38 737.72C366.43 733.52 306.28 715.1 285.55 702.8C255.38 684.86 247.69 689.15 224.84 701.9C222.47 703.23 219.9 704.66 217.12 706.17C194.6 718.41 166.87 707.88 142.72 695.96C120.71 685.1 90.55 670.23 63.55 680.73C48.73 686.5 13.2 720.2 8.58996 744.14C7.10996 751.85 8.78996 758.04 13.6 762.53C24.79 772.98 47.23 767.58 67.06 762.8C74.9 760.91 82.31 759.13 87.28 758.89C137.955 756.55 189.59 759.589 239.535 762.529L239.55 762.53C264.66 764.01 290.62 765.53 316.14 766.36C333.19 766.91 351.7 768.02 369.6 769.1L369.632 769.102C388.752 770.251 408.531 771.44 427.22 772ZM239.693 756.91C202.159 754.703 163.67 752.44 125.28 752.44C112.5 752.44 99.73 752.69 87 753.27C81.49 753.53 74.18 755.29 65.72 757.33L65.6477 757.347C48.1301 761.554 26.3776 766.778 17.41 758.41C14.07 755.28 12.98 750.95 14.09 745.18C18.31 723.29 52.04 691.21 65.57 685.95C90.2641 676.35 117.912 689.981 140.15 700.946L140.22 700.98C164.18 712.8 194.86 724.64 219.79 711.09C222.59 709.57 225.17 708.13 227.57 706.79L227.587 706.781C249.963 694.298 255.277 691.334 282.67 707.62C303.87 720.2 365.04 738.97 387.32 743.23C431.33 751.66 466.2 760.47 474.26 765.08C470.47 766.06 459.43 767.34 427.38 766.38C408.77 765.82 389.02 764.64 369.93 763.49L369.504 763.464C351.697 762.392 333.314 761.286 316.31 760.74C291.233 759.932 265.7 758.435 240.973 756.985L239.87 756.92L239.693 756.91Z" fill="#1A4A67"/>
<path d="M91.54 675.06C91.42 675.06 91.29 675.05 91.17 675.02C90.15 674.82 89.49 673.83 89.7 672.82L97.48 633.95C97.69 632.93 98.73 632.28 99.68 632.48C100.7 632.68 101.36 633.67 101.15 634.68L93.37 673.55C93.2 674.45 92.42 675.06 91.54 675.06Z" fill="white"/>
<path d="M282.16 772.35C281.25 772.35 280.35 771.9 279.81 771.08L250.39 726.27C249.54 724.97 249.9 723.23 251.2 722.38C252.49 721.52 254.24 721.89 255.09 723.19L284.5 768C285.35 769.3 284.99 771.04 283.69 771.89C283.22 772.2 282.69 772.35 282.16 772.35Z" fill="#1A4A67"/>
<path d="M114.79 765.35C114.03 765.35 113.27 765.04 112.71 764.43L78.25 726.62C77.21 725.47 77.29 723.69 78.44 722.65C79.59 721.61 81.36 721.69 82.41 722.83L116.87 760.64C117.91 761.79 117.83 763.57 116.68 764.61C116.14 765.11 115.46 765.35 114.79 765.35Z" fill="#1A4A67"/>
<path d="M99.31 748.37C98.73 748.37 98.14 748.19 97.64 747.82C96.4 746.9 96.14 745.13 97.06 743.89L112.53 723.05C113.46 721.81 115.21 721.54 116.46 722.47C117.7 723.39 117.96 725.16 117.04 726.4L101.57 747.24C101.02 747.98 100.17 748.37 99.31 748.37Z" fill="#1A4A67"/>
<path d="M267.44 749.94C267.03 749.94 266.61 749.85 266.21 749.66L232.21 733.08C230.82 732.4 230.24 730.72 230.92 729.32C231.6 727.93 233.28 727.35 234.68 728.02L268.68 744.6C270.07 745.28 270.65 746.96 269.97 748.36C269.48 749.36 268.48 749.94 267.44 749.94Z" fill="#1A4A67"/>
<path d="M259.57 737.02C259.35 737.02 259.12 736.98 258.9 736.9C257.93 736.53 257.45 735.45 257.81 734.48L265.68 713.8C266.05 712.83 267.14 712.35 268.1 712.72C269.07 713.09 269.55 714.17 269.19 715.14L261.32 735.82C261.04 736.56 260.33 737.02 259.57 737.02Z" fill="white"/>
<path d="M771.02 678.57C777.92 678.08 783.15 670.97 788.5 665.46C793.85 659.95 801.88 655.75 807.34 661.11C814.18 667.83 811 683.85 818.1 690.12C836.72 689.5 874.4 677.55 885.98 692.35C915.18 729.65 910.15 705.55 927.53 714.04C928.85 714.69 930.28 715.46 930.94 717.04C932.64 721.08 928.16 724.71 924.62 725.69C889.59 735.39 853.87 730.72 818.64 727.93C801.27 726.55 784.38 723.31 767.1 725.69C754.51 727.43 740.51 733.07 728.61 725.34C714.67 716.28 704.43 686.73 713.01 668.45C730.43 631.36 752.59 679.88 771.02 678.57Z" fill="white"/>
<path fill-rule="evenodd" clip-rule="evenodd" d="M830.749 731.755C845.833 733.037 861.162 734.34 876.54 734.34C892.84 734.34 909.2 732.88 925.4 728.41C928.24 727.62 931.81 725.39 933.36 722.19C934.35 720.15 934.42 718 933.56 715.96C932.44 713.3 930.07 712.14 928.79 711.52C921.617 708.008 917.47 709.354 914.144 710.432L914.12 710.44C909.7 711.89 905.85 713.14 888.22 690.62C878.74 678.51 856.05 682.02 836.02 685.12C829.81 686.08 823.92 686.99 819.24 687.26C816.97 684.56 816.19 679.94 815.37 675.07C814.38 669.16 813.35 663.05 809.33 659.1C807.14 656.95 804.4 655.81 801.38 655.81H801.24C794.6 655.89 788.73 661.21 786.51 663.5C785.59 664.45 784.66 665.45 783.73 666.46C779.66 670.87 775.45 675.43 770.84 675.76C765.3 676.13 758.36 670.27 751.67 664.58L751.62 664.538C743.196 657.381 734.512 650.004 725.48 651.95C719.63 653.23 714.72 658.23 710.49 667.25C701.29 686.85 712.05 717.91 727.1 727.69C737.346 734.358 748.982 732.022 759.24 729.962L759.25 729.96C762.12 729.38 764.83 728.84 767.5 728.47C780.07 726.74 792.31 728.05 805.26 729.44C809.63 729.91 814.01 730.38 818.43 730.73C822.428 731.05 826.436 731.39 830.445 731.73L830.45 731.73L830.749 731.755ZM805.832 723.848C797.458 722.949 788.904 722.03 780.25 722.03C775.76 722.03 771.25 722.28 766.73 722.93C763.9 723.32 760.97 723.91 758.14 724.48L758.121 724.484C748.018 726.512 738.485 728.427 730.15 723.01C717.17 714.58 707.59 686.66 715.56 669.67C718.95 662.44 722.68 658.34 726.65 657.48C732.949 656.107 740.526 662.547 747.893 668.809L748 668.9L748.097 668.983C755.616 675.377 763.344 681.948 771.21 681.4C778.05 680.91 783.02 675.52 787.83 670.3C788.72 669.33 789.61 668.36 790.51 667.44C794.12 663.73 798.14 661.5 801.28 661.46C802.83 661.46 804.2 661.99 805.36 663.13C808.067 665.788 808.942 670.952 809.788 675.951L809.8 676.02L809.803 676.039C810.832 682.123 811.894 688.404 816.24 692.24L817.08 692.98L818.2 692.94C823.38 692.76 829.93 691.75 836.86 690.68C854.44 687.96 876.33 684.58 883.77 694.09C902.47 717.97 908.36 718.22 915.84 715.79C918.69 714.85 921.17 714.06 926.3 716.57C927.45 717.12 928.11 717.54 928.36 718.13C928.51 718.49 928.64 718.99 928.28 719.73C927.63 721.07 925.74 722.47 923.88 722.98C893.344 731.441 861.671 728.746 831.023 726.139L830.92 726.13L829.975 726.05C826.263 725.737 822.566 725.425 818.87 725.13C814.793 724.804 810.751 724.373 806.719 723.943C806.43 723.912 806.14 723.881 805.85 723.85L805.832 723.848Z" fill="#1A4A67"/>
<path d="M839.21 749.94C838.75 749.94 838.27 749.82 837.83 749.58C836.48 748.82 836 747.1 836.76 745.75L864.24 696.98C865 695.63 866.71 695.15 868.07 695.91C869.42 696.67 869.9 698.39 869.14 699.74L841.66 748.51C841.14 749.43 840.19 749.94 839.21 749.94Z" fill="#1A4A67"/>
<path d="M1249.06 632.5C1248.59 628.79 1248.52 624.53 1251.2 621.92C1257.59 615.71 1269.12 626.51 1276.74 621.9C1280.86 619.41 1281.47 613.6 1280.32 608.93C1279.17 604.26 1276.75 599.87 1276.45 595.08C1275.63 581.93 1289.82 573.71 1298.06 563.42C1305.76 553.8 1309.28 540.31 1319.87 534.01C1322.94 532.18 1326.83 531.12 1330.08 532.6C1336.02 535.3 1335.81 543.71 1334.49 550.1C1331.01 566.9 1326.84 586.17 1337.29 599.77C1341.3 604.99 1347.55 609.73 1347.1 616.31C1346.62 623.29 1338.77 627.4 1336.3 633.94C1333.28 641.95 1339.08 651.08 1336.79 659.33C1334.4 667.96 1324.44 671.98 1319.4 679.39C1317.05 682.85 1315.8 687.03 1313.1 690.22C1301.26 704.2 1279.65 693.55 1270.68 682.5C1259.06 668.19 1251.39 650.8 1249.06 632.5Z" fill="#37C1D3"/>
<path d="M1028.43 618.27C1053.46 606.96 1081.24 622.64 1105.56 637.04C1129.88 651.44 1159.14 664.93 1182.7 649.92C1211.84 631.35 1216.32 623.8 1248.36 646.57C1269.14 661.31 1329.44 684.03 1352.55 689.51C1369.8 693.6 1520.29 729.93 1392.33 723.99C1355.98 722.3 1316.32 717.83 1281.12 716.1C1204.8 712.35 1128.18 701.42 1051.81 704.77C1034.67 705.54 994.85 725.44 980.17 709.19C959.72 686.54 1010.82 626.23 1028.43 618.27Z" fill="#E6E7E8"/>
<path d="M1263.18 601.65C1266.31 596.31 1268.55 588.28 1262.89 585.26C1260.57 584.02 1257.72 584.24 1255.06 584.5C1246.25 585.36 1237.45 586.21 1228.64 587.07C1225.84 576.4 1232.22 565.39 1240.35 557.45C1248.48 549.5 1258.53 543.31 1265.86 534.72C1273.19 526.13 1277.38 513.73 1271.64 504.14C1265.9 494.55 1247.61 493.24 1243.51 503.54C1251.82 484.26 1260.14 464.98 1268.45 445.7C1270.56 440.81 1272.02 433.98 1267.14 431.34C1264.69 430.02 1261.62 430.48 1258.88 431.15C1245.6 434.4 1233.46 441.62 1224.68 451.48C1234.99 434.47 1220.72 413.48 1204.67 400.95C1190.1 389.58 1167.73 380.79 1153.2 392.22C1135.63 406.05 1147.85 432.48 1145.19 453.8C1144.67 457.99 1143.31 462.4 1139.8 465.06C1134.2 469.32 1125.72 467.44 1119.05 470.01C1106.37 474.9 1106.61 491.52 1109.01 504.13C1115.71 539.24 1122.4 574.35 1129.1 609.45C1117.54 600.73 1105.99 592.01 1094.43 583.29C1089.04 579.23 1082.11 574.92 1075.73 577.45C1072.05 578.91 1069.69 582.4 1068.68 586.02C1064.3 601.82 1081.27 614.86 1089.63 629.2C1106.85 658.77 1085.42 749.05 1149.02 713.46C1196.02 687.18 1237 646.32 1263.18 601.65Z" fill="#37C1D3"/>
<path fill-rule="evenodd" clip-rule="evenodd" d="M1114.34 722.13C1117.34 723.68 1120.71 724.46 1124.46 724.46C1131.63 724.46 1140.21 721.62 1150.41 715.95C1196.8 690 1238.79 648.86 1265.61 603.1C1267.08 600.57 1270.36 594.08 1268.76 588.44C1268.07 585.97 1266.5 584.02 1264.22 582.81C1261.09 581.134 1257.49 581.474 1254.85 581.724L1254.79 581.73L1230.91 584.05C1229.59 573.3 1238.3 563.41 1242.32 559.48C1245.62 556.25 1249.36 553.23 1252.98 550.31L1253.01 550.283C1258.2 546.092 1263.58 541.749 1268 536.56C1275.13 528.2 1281 514.31 1274.05 502.71C1270.45 496.72 1262.32 492.98 1254.33 493.64C1253 493.74 1251.74 493.96 1250.55 494.29L1271.02 446.83C1274.71 438.29 1273.78 431.75 1268.47 428.88C1265.14 427.08 1261.23 427.7 1258.21 428.44C1248.16 430.9 1238.73 435.55 1230.82 441.85C1232.36 426.56 1220.88 410.06 1206.4 398.76C1191.1 386.82 1167.53 377.37 1151.46 390.03C1138.56 400.175 1140.17 416.143 1141.73 431.595L1141.73 431.62C1142.48 439.01 1143.25 446.64 1142.4 453.47C1141.83 458.01 1140.43 461.07 1138.1 462.84C1135.49 464.82 1131.78 465.177 1127.84 465.554L1127.78 465.56L1127.76 465.562C1124.54 465.871 1121.19 466.192 1118.04 467.41C1106.69 471.79 1102.5 485.02 1106.25 504.68L1124.97 602.84L1096.12 581.07C1090.17 576.58 1082.35 571.82 1074.7 574.86C1070.54 576.51 1067.36 580.31 1065.98 585.29C1062.49 597.86 1070.72 608.44 1078.68 618.67L1078.78 618.8C1081.79 622.67 1084.9 626.665 1087.2 630.63C1092.31 639.395 1093.91 654.724 1095.46 669.557L1095.46 669.58L1095.46 669.582C1097.78 691.801 1100.18 714.79 1114.34 722.13ZM1076.78 580.07C1077.73 579.69 1078.73 579.52 1079.75 579.52C1084.11 579.52 1088.87 582.62 1092.74 585.56L1133.23 616.11L1111.77 503.63C1109.93 493.97 1108.56 477.1 1120.06 472.66C1122.46 471.738 1125.23 471.47 1128.15 471.186L1128.32 471.17C1132.89 470.74 1137.62 470.29 1141.51 467.33C1145.05 464.64 1147.23 460.21 1147.98 454.18C1148.91 446.72 1148.11 438.77 1147.33 431.07L1147.33 431.025C1145.86 416.452 1144.47 402.692 1154.94 394.46C1167.6 384.5 1188.18 391.67 1202.94 403.2C1219.07 415.8 1231.31 435.17 1222.28 450.06L1226.78 453.38C1235.18 443.94 1246.82 437.02 1259.55 433.91C1261.59 433.41 1264.15 432.95 1265.8 433.84C1269.34 435.76 1266.74 442.58 1265.86 444.62L1241.18 501.86C1241.08 502.07 1240.98 502.29 1240.89 502.52L1246.08 504.67L1246.3 504.17C1248.17 500.21 1252.82 499.41 1254.78 499.25C1260.69 498.77 1266.73 501.45 1269.22 505.61C1274.64 514.65 1269.64 525.97 1263.72 532.92C1259.67 537.677 1254.77 541.639 1249.59 545.827L1249.45 545.94C1245.73 548.94 1241.88 552.05 1238.39 555.46C1227.79 565.82 1223.25 577.61 1225.92 587.8L1226.53 590.11L1255.33 587.31C1257.84 587.07 1260.04 586.93 1261.57 587.75C1262.51 588.25 1263.08 588.95 1263.36 589.95C1264.03 592.35 1263.02 596.39 1260.76 600.24C1234.43 645.17 1193.21 685.55 1147.67 711.03C1134.09 718.62 1123.75 720.68 1116.94 717.15C1105.47 711.19 1103.23 689.74 1101.07 669C1099.39 652.86 1097.8 637.62 1092.08 627.8C1089.55 623.47 1086.29 619.27 1083.13 615.21L1083.11 615.183C1075.69 605.633 1068.68 596.621 1071.41 586.78C1072.3 583.56 1074.31 581.05 1076.78 580.07Z" fill="#1A4A67"/>
<path d="M1288.85 681.78C1288.69 681.78 1288.54 681.76 1288.37 681.72C1287.37 681.46 1286.77 680.43 1287.03 679.43L1307.02 603.33C1307.28 602.33 1308.3 601.73 1309.31 601.99C1310.31 602.25 1310.91 603.28 1310.65 604.28L1290.66 680.38C1290.45 681.23 1289.68 681.78 1288.85 681.78Z" fill="white"/>
<path d="M1297.97 643.73C1297.27 643.73 1296.59 643.33 1296.27 642.65C1295.83 641.71 1296.24 640.6 1297.17 640.16L1320.53 629.21C1321.46 628.77 1322.58 629.17 1323.02 630.11C1323.46 631.05 1323.05 632.16 1322.12 632.6L1298.76 643.55C1298.5 643.68 1298.23 643.73 1297.97 643.73Z" fill="white"/>
<path d="M1291.58 671.4C1290.91 671.4 1290.25 671.03 1289.92 670.39L1272.66 637.25C1272.18 636.33 1272.54 635.2 1273.46 634.72C1274.36 634.24 1275.51 634.6 1275.98 635.52L1293.24 668.66C1293.72 669.58 1293.36 670.71 1292.44 671.19C1292.17 671.33 1291.88 671.4 1291.58 671.4Z" fill="white"/>
<path d="M1148.82 695.78C1148.67 695.78 1148.52 695.76 1148.37 695.73C1147.36 695.48 1146.75 694.47 1147 693.46L1199.6 479.55C1199.85 478.55 1200.86 477.92 1201.87 478.18C1202.88 478.43 1203.49 479.44 1203.24 480.45L1150.64 694.36C1150.43 695.21 1149.67 695.78 1148.82 695.78Z" fill="white"/>
<path d="M1183.17 556.13C1182.58 556.13 1182 555.85 1181.64 555.33C1181.04 554.48 1181.25 553.32 1182.1 552.72L1229.09 519.82C1229.94 519.23 1231.11 519.43 1231.7 520.28C1232.3 521.13 1232.09 522.29 1231.24 522.89L1184.25 555.79C1183.91 556.02 1183.54 556.13 1183.17 556.13Z" fill="white"/>
<path d="M1157.36 671.4C1156.79 671.4 1156.23 671.14 1155.86 670.64C1155.24 669.81 1155.42 668.64 1156.24 668.02L1215.29 624.09C1216.12 623.48 1217.29 623.64 1217.91 624.48C1218.53 625.31 1218.35 626.48 1217.53 627.1L1158.48 671.03C1158.15 671.28 1157.76 671.4 1157.36 671.4Z" fill="white"/>
<path d="M1056.43 825.03C1056.94 827.44 1059.8 830.05 1061.45 828.22C1061.93 827.68 1062.08 826.93 1062.18 826.22C1063.41 817.84 1062.8 807.97 1069.28 802.52C1071.64 806.94 1073.99 811.36 1076.35 815.77C1079.68 803.46 1083.56 790.31 1093.51 782.34C1093.7 788.06 1093.9 793.77 1094.09 799.49C1094.13 800.55 1094.23 801.75 1095.04 802.42C1096.58 803.69 1098.78 801.96 1099.86 800.28C1103.83 794.13 1105.9 786.48 1111.64 781.93C1112.7 781.09 1114.17 780.37 1115.34 781.03C1116.06 781.44 1116.43 782.27 1116.64 783.07C1118.11 788.67 1113.89 793.95 1110.97 798.95C1107.6 804.7 1105.72 811.32 1105.56 817.99C1109.1 815.08 1112.64 812.16 1116.18 809.25C1118.3 807.5 1121.87 805.92 1123.35 808.23C1124.22 809.58 1123.59 811.37 1122.77 812.74C1120.83 815.99 1117.94 818.58 1115.84 821.72C1113.74 824.86 1112.47 829.05 1114.21 832.42C1118.03 828.87 1123.23 826.84 1128.44 826.87C1120.43 831.49 1119.61 842.74 1113.9 850.01C1104.09 862.5 1074.76 868.97 1061 859.65C1054.38 855.17 1051.09 847.17 1049.26 839.67C1048.1 834.89 1047.12 829.38 1049 824.64C1051.67 817.95 1054.98 818.17 1056.43 825.03Z" fill="#E6E7E8"/>
<path d="M1098.3 841.76C1097.53 840.02 1097.04 837.69 1098.49 836.46C1099.54 835.57 1101.1 835.73 1102.43 836.06C1106.74 837.11 1110.75 839.35 1113.89 842.48C1112.73 837.4 1112.77 832.04 1114.01 826.98C1114.34 825.64 1114.97 824.1 1116.33 823.83C1118.08 823.47 1119.32 825.44 1120.01 827.09C1121.76 831.3 1123.51 835.5 1125.26 839.71C1127.35 834.81 1130.31 830.29 1133.97 826.43C1134.55 825.82 1135.22 825.18 1136.07 825.11C1138.17 824.92 1138.81 827.89 1138.6 829.98C1137.67 839.17 1136.98 858.57 1126.04 860.35C1115.13 862.1 1102.31 850.82 1098.3 841.76Z" fill="#1A4A67"/>
<path d="M900.57 846.37C901.26 845.69 902.37 845.7 903.33 845.88C907.49 846.64 911.12 849.83 912.41 853.87C912.67 850.03 913.55 846.24 915.01 842.68C915.62 841.2 916.38 839.69 917.68 838.76C918.98 837.83 920.97 837.68 922.09 838.83C922.95 839.71 923.07 841.06 923.08 842.29C923.1 845.69 922.61 849.09 921.61 852.34C927.25 845.68 933.59 838.59 942.18 837.02C943.27 836.82 944.51 836.75 945.36 837.46C946.82 838.66 946.1 841.02 945.12 842.63C940.32 850.58 929.5 859.93 920.11 861.82C914.67 862.91 894.37 852.43 900.57 846.37Z" fill="#37C1D3"/>
<path fill-rule="evenodd" clip-rule="evenodd" d="M912.43 863.2L914.21 868.77L914.54 863.91C914.72 863.96 914.9 864.01 915.07 864.06L914.9 864.63L915.32 864.13C917.42 864.68 919.28 864.88 920.66 864.6C930.99 862.53 942.43 852.55 947.53 844.11C949.61 840.67 949.46 837.21 947.15 835.31C945.142 833.668 942.586 834.12 941.708 834.275L941.68 834.28C935.46 835.41 930.46 838.96 925.88 843.48C925.89 843.08 925.89 842.69 925.89 842.29C925.87 840.62 925.66 838.49 924.1 836.89C922.09 834.82 918.63 834.65 916.04 836.49C914.13 837.85 913.13 839.85 912.4 841.63C911.75 843.22 911.2 844.85 910.77 846.51C908.82 844.8 906.42 843.61 903.83 843.13C901.06 842.62 899.47 843.52 898.6 844.37C896.37 846.55 895.98 849.48 897.52 852.4C899.77 856.66 906.47 860.99 912.43 863.2ZM942.69 839.79C942.98 839.74 943.19 839.71 943.34 839.7C943.26 840.04 943.09 840.57 942.72 841.18C938.35 848.41 928.28 857.29 919.6 859.06L923.75 854.16C929.51 847.36 935.3 841.14 942.69 839.79ZM914.93 858.13C915.56 858.36 916.16 858.55 916.71 858.7L918.92 851.52C919.84 848.54 920.29 845.44 920.27 842.32C920.26 841.12 920.1 840.84 920.07 840.79C920.065 840.791 920.055 840.793 920.042 840.795C919.933 840.811 919.578 840.864 919.31 841.06C918.57 841.59 918.04 842.72 917.61 843.76C916.26 847.05 915.45 850.52 915.21 854.07L914.93 858.13ZM902.49 849.76C902.14 849.09 902.17 848.82 902.34 848.59C902.365 848.593 902.394 848.595 902.426 848.598C902.523 848.606 902.652 848.618 902.81 848.64C905.97 849.22 908.75 851.66 909.72 854.72L910.13 855.99C906.8 854.23 903.65 851.95 902.49 849.76Z" fill="#1A4A67"/>
<path d="M1240.25 675.47C1232.56 672.88 1223.27 671.95 1216.27 675.65C1205.92 681.11 1204.36 694.41 1193.31 698.84C1179.54 704.36 1163.91 691.76 1148.82 693.92C1135.91 695.77 1127.6 707.86 1114.57 708.93C1108.36 709.44 1102.35 707.3 1096.46 705.62C1090.56 703.94 1083.87 702.73 1078.25 704.97C1072.64 707.21 1069.9 714.33 1074.72 717.59C1076.88 719.05 1079.84 719.34 1082.63 719.56C1130.4 723.36 1178.72 724.61 1226.67 722.59C1240.32 722.01 1263.69 722.54 1269.15 708.98C1274.71 695.19 1253.76 680.02 1240.25 675.47Z" fill="#1A4A67"/>
<path d="M1226.68 724.45C1226.51 724.45 1226.34 724.43 1226.16 724.38C1225.16 724.1 1224.59 723.06 1224.88 722.06L1233.35 692.48C1233.63 691.49 1234.65 690.9 1235.67 691.2C1236.67 691.48 1237.24 692.52 1236.95 693.52L1228.48 723.1C1228.24 723.91 1227.49 724.45 1226.68 724.45Z" fill="white"/>
<path d="M1231.31 708.29C1230.66 708.29 1230.03 707.95 1229.69 707.35L1225.06 699.3C1224.54 698.4 1224.86 697.26 1225.75 696.74C1226.64 696.23 1227.79 696.53 1228.31 697.43L1232.94 705.48C1233.46 706.38 1233.14 707.52 1232.25 708.04C1231.95 708.21 1231.62 708.29 1231.31 708.29Z" fill="white"/>
<path d="M809.03 730.55H543.06C534.95 730.55 528.31 723.91 528.31 715.8V713.12C528.31 705.01 534.95 698.37 543.06 698.37H809.03C817.14 698.37 823.78 705.01 823.78 713.12V715.8C823.78 723.91 817.14 730.55 809.03 730.55Z" fill="#A7A9AC"/>
<path d="M726.42 730.55H625.67C619.34 730.55 614.16 725.37 614.16 719.04V599.27C614.16 592.94 619.34 587.76 625.67 587.76H726.42C732.75 587.76 737.93 592.94 737.93 599.27V719.05C737.92 725.38 732.75 730.55 726.42 730.55Z" fill="#A7A9AC"/>
<path d="M1138.83 630.91H213.25C195.82 630.91 181.56 616.65 181.56 599.22V34.61C181.56 17.18 195.82 2.92004 213.25 2.92004H1138.82C1156.25 2.92004 1170.51 17.18 1170.51 34.61V599.22C1170.52 616.65 1156.26 630.91 1138.83 630.91Z" fill="#E6E7E8"/>
<path fill-rule="evenodd" clip-rule="evenodd" d="M213.26 633.72H1138.83C1157.85 633.72 1173.33 618.24 1173.33 599.22V34.61C1173.33 15.59 1157.85 0.109985 1138.83 0.109985H213.26C194.24 0.109985 178.76 15.59 178.76 34.61V599.22C178.76 618.24 194.24 633.72 213.26 633.72ZM184.38 34.61C184.38 18.69 197.34 5.72999 213.26 5.72999H1138.83C1154.75 5.72999 1167.71 18.69 1167.71 34.61V599.22C1167.71 615.14 1154.75 628.1 1138.83 628.1H213.26C197.34 628.1 184.38 615.14 184.38 599.22V34.61Z" fill="#1A4A67"/>
<path d="M228.8 17.53C211.69 17.53 197.69 31.53 197.69 48.64V249.58C295.62 170.96 394.96 93.75 495.29 17.53L228.8 17.53Z" fill="#EFF0FC"/>
<path d="M1119.48 17.53H1030.61H495.29C394.96 93.75 295.62 170.97 197.69 249.58V460.55V536.51C197.69 553.62 211.69 567.62 228.8 567.62H1119.48C1136.59 567.62 1150.59 553.62 1150.59 536.51V48.64C1150.59 31.53 1136.59 17.53 1119.48 17.53Z" fill="white"/>
<path d="M674.14 603.81C678.89 603.81 682.74 599.96 682.74 595.21C682.74 590.46 678.89 586.61 674.14 586.61C669.39 586.61 665.54 590.46 665.54 595.21C665.54 599.96 669.39 603.81 674.14 603.81Z" fill="#1A4A67"/>
<path d="M1013.12 354.49C1011.8 354.49 1010.48 354.03 1009.41 353.09L735 112.07C732.67 110.02 732.44 106.47 734.49 104.14C736.54 101.81 740.09 101.57 742.42 103.63L1016.83 344.65C1019.16 346.7 1019.39 350.25 1017.34 352.58C1016.24 353.84 1014.68 354.49 1013.12 354.49Z" fill="#1A4A67"/>
<path d="M700.48 152.76C698.09 152.76 695.71 151.85 693.88 150.04C690.21 146.39 690.19 140.46 693.83 136.79L769.5 60.57C773.15 56.9 779.07 56.88 782.75 60.52C786.42 64.17 786.44 70.1 782.8 73.77L707.13 149.99C705.3 151.83 702.89 152.76 700.48 152.76Z" fill="#1A4A67"/>
<rect x="912.562" y="329.667" width="3.74996" height="532.675" transform="rotate(-4.20359 912.562 329.667)" fill="#1A4A67"/>
<rect x="999.936" y="329.774" width="3.74994" height="532.671" transform="rotate(-4.19788 999.936 329.774)" fill="#1A4A67"/>
<rect x="918.29" y="380.39" width="87.42" height="3.75" fill="#1A4A67"/>
<rect x="922.79" y="426.76" width="87.42" height="3.75" fill="#1A4A67"/>
<rect x="927.3" y="473.12" width="87.42" height="3.75" fill="#1A4A67"/>
<rect x="927.3" y="519.49" width="87.42" height="3.75" fill="#1A4A67"/>
<rect x="931.8" y="565.85" width="87.42" height="3.75" fill="#1A4A67"/>
<rect x="936.3" y="612.22" width="87.42" height="3.75" fill="#1A4A67"/>
<rect x="936.3" y="658.58" width="87.42" height="3.75" fill="#1A4A67"/>
<rect x="940.81" y="704.95" width="87.42" height="3.75" fill="#1A4A67"/>
<path d="M1075.61 571.25L1099.91 595.77L1108.94 588.49L1082.07 564.42C1082.07 564.41 1076.57 567.68 1075.61 571.25Z" fill="white"/>
<path fill-rule="evenodd" clip-rule="evenodd" d="M1072.48 572.08L1099.7 599.54L1113.28 588.59L1082.41 560.94L1080.64 561.99C1079.55 562.64 1074.09 566.07 1072.9 570.52L1072.48 572.08ZM1100.13 591.98L1079.02 570.69C1079.71 569.76 1080.78 568.78 1081.84 567.97L1104.61 588.37L1100.13 591.98Z" fill="#1A4A67"/>
<path d="M1086.6 640.86C1086.6 640.86 1093.44 635.46 1102.99 622.83C1112.55 610.19 1122.6 595.7 1122.37 591.74C1122.14 587.77 1106.51 575.23 1103.66 579.65C1100.81 584.07 1106.09 589.93 1095.34 594.04C1086.13 597.56 1091.91 608.86 1086.86 622.09C1081.81 635.32 1079.75 640.66 1086.6 640.86Z" fill="#D1D3D4"/>
<path fill-rule="evenodd" clip-rule="evenodd" d="M1086.52 643.67L1087.54 643.7L1088.33 643.07C1088.62 642.84 1095.56 637.3 1105.22 624.53C1125.52 597.69 1125.27 593.25 1125.17 591.58C1124.87 586.53 1113.52 577.72 1107.88 576.23C1103.9 575.17 1102.04 576.97 1101.29 578.13C1099.9 580.29 1099.84 582.58 1099.8 584.43L1099.8 584.434C1099.73 587.512 1099.69 589.371 1094.33 591.42C1087.2 594.15 1086.88 600.69 1086.58 607.02C1086.38 611.26 1086.15 616.06 1084.2 621.16C1080.09 631.92 1078.03 637.33 1080.43 640.93C1082.18 643.548 1085.45 643.64 1086.52 643.67L1086.52 643.67ZM1085.16 637.823C1085.14 637.815 1085.12 637.81 1085.12 637.81C1084.4 636.41 1086.97 629.67 1089.48 623.09C1091.72 617.23 1091.99 611.71 1092.2 607.28C1092.52 600.46 1092.94 597.96 1096.34 596.66C1105.23 593.264 1105.35 588.033 1105.43 584.563L1105.43 584.55C1105.46 583.19 1105.5 582.25 1105.84 581.51C1109.03 581.53 1118.86 589.42 1119.57 591.87C1119.53 593.55 1115.53 601.6 1100.75 621.13C1093.44 630.8 1087.73 636.16 1085.68 637.96C1085.38 637.907 1085.23 637.848 1085.16 637.823Z" fill="#1A4A67"/>
<path d="M1058.56 510.09C1060.94 519.47 1061.63 529.63 1066.77 537.3C1074.58 548.96 1088.29 552.31 1100.83 554.86C1097.25 566.33 1090.35 575.93 1083.59 585.26C1078.59 592.16 1073.47 599.18 1066.8 603.81C1064.54 594.9 1062.25 585.9 1058.22 577.88C1054.62 570.72 1049.74 564.55 1045.51 557.86C1032.95 537.99 1026.44 513.98 1020.13 490.45C1016.84 478.17 992.98 382.03 1025.48 404.19C1047.54 419.23 1042.27 445.85 1058.56 510.09Z" fill="white"/>
<path fill-rule="evenodd" clip-rule="evenodd" d="M1064.06 604.5L1065.06 608.43L1068.38 606.13C1075.51 601.18 1081 593.61 1085.84 586.93L1085.87 586.885C1092.37 577.906 1099.74 567.74 1103.49 555.71L1104.42 552.74L1101.37 552.12C1088.35 549.47 1076.09 546.22 1069.08 535.75C1065.67 530.645 1064.37 524.212 1063 517.388L1062.98 517.29L1062.96 517.18C1062.44 514.576 1061.91 511.964 1061.26 509.41C1055.79 487.82 1052.74 470.4 1050.3 456.4L1050.29 456.358C1045.35 428.084 1042.62 412.505 1027.04 401.88C1020.9 397.7 1015.84 396.96 1012 399.69C996.37 410.78 1015.19 482.99 1017.39 491.19C1023.68 514.66 1030.19 538.93 1043.11 559.37C1044.57 561.68 1046.1 563.92 1047.64 566.17L1047.68 566.234C1050.63 570.54 1053.41 574.612 1055.69 579.14C1059.6 586.93 1061.87 595.86 1064.06 604.5ZM1015.27 404.26C1015.82 403.87 1016.47 403.7 1017.18 403.7C1019.26 403.7 1021.85 405.11 1023.88 406.49C1037.51 415.79 1039.94 429.67 1044.77 457.34L1044.78 457.397C1047.24 471.478 1050.3 489 1055.82 510.77C1056.44 513.233 1056.94 515.754 1057.45 518.266L1057.47 518.38C1058.89 525.47 1060.37 532.81 1064.42 538.86C1071.99 550.16 1084.51 554.21 1097.13 556.95C1093.45 566.846 1087.29 575.353 1081.31 583.599L1081.3 583.61C1077.36 589.06 1073.3 594.66 1068.45 598.93C1066.48 591.34 1064.26 583.65 1060.72 576.61C1058.28 571.761 1055.27 567.355 1052.36 563.099L1052.29 562.99L1052.29 562.99C1050.79 560.8 1049.29 558.61 1047.87 556.36C1035.41 536.64 1029.01 512.79 1022.83 489.72C1014.34 458.04 1006.37 410.57 1015.27 404.26Z" fill="#1A4A67"/>
<path d="M1001.1 607.06L993.69 640.77L1004.71 644.41L1010.35 608.78C1010.35 608.77 1004.62 605.92 1001.1 607.06Z" fill="white"/>
<path fill-rule="evenodd" clip-rule="evenodd" d="M990.39 642.64L1006.96 648.11L1013.44 607.17L1011.59 606.25C1010.46 605.68 1004.64 602.95 1000.23 604.37L998.7 604.87L990.39 642.64ZM1002.45 640.7L996.98 638.9L1003.42 609.61C1004.57 609.69 1005.98 610.06 1007.23 610.51L1002.45 640.7Z" fill="#1A4A67"/>
<path d="M948.58 654.05C948.58 654.05 956.82 656.86 972.62 658.04C988.42 659.21 1006.05 659.8 1009.26 657.45C1012.47 655.11 1014.53 635.17 1009.26 635.17C1003.99 635.17 1001.95 642.79 992.66 635.99C984.7 630.16 978.35 641.15 964.5 644.08C950.65 647.01 945.03 648.19 948.58 654.05Z" fill="#D1D3D4"/>
<path fill-rule="evenodd" clip-rule="evenodd" d="M972.41 660.85C982.64 661.61 990.09 661.89 995.54 661.89C1007.93 661.89 1009.97 660.418 1010.9 659.745L1010.91 659.74C1014.98 656.76 1016.23 642.44 1014.42 636.89C1013.14 632.97 1010.63 632.38 1009.25 632.38C1006.68 632.38 1004.72 633.58 1003.15 634.55L1003.15 634.552C1000.52 636.161 998.938 637.128 994.31 633.74C988.144 629.223 982.488 632.505 977.011 635.683L977 635.69L976.932 635.729C973.269 637.849 969.127 640.247 963.8 641.37C952.54 643.75 946.89 644.95 945.17 648.92C943.92 651.81 945.61 654.6 946.17 655.52L946.7 656.39L947.67 656.72C948.02 656.84 956.44 659.67 972.41 660.85ZM972.83 655.23C960.75 654.34 953.15 652.45 950.52 651.7C950.36 651.32 950.34 651.15 950.34 651.14C951.13 649.78 958.17 648.29 965.08 646.83C971.186 645.527 975.938 642.78 979.767 640.566L979.83 640.53C985.73 637.1 988.07 636.1 991 638.25C998.68 643.87 1003.14 641.13 1006.1 639.31C1007.27 638.59 1008.08 638.12 1008.88 638C1010.59 640.69 1009.29 653.23 1007.62 655.16C1006.19 656.04 997.26 657.04 972.83 655.23Z" fill="#1A4A67"/>
<path d="M972.45 614.57C973.05 613.37 974.5 612.53 975.77 611.65C987.34 603.57 985.5 590.01 984.48 578.2C982.06 550.19 988.31 522.5 991.74 494.85C995.08 467.86 994.09 440.5 989.58 413.7C987.94 403.96 985.78 388.93 1000.44 392.68C1007.39 394.46 1014.34 394.63 1021.43 393.85C1025.16 393.44 1021.47 392 1025.16 393.44C1037.72 398.34 1028.11 410.96 1024.94 419.23C1018.63 435.7 1024.63 467.76 1022.65 485.51C1019.85 510.67 1018.18 531.56 1019.59 556.79C1020.28 569.15 1021.21 581.5 1022.07 593.85C1022.57 601.05 1027.55 617.09 1023.14 623.3C1017.08 631.83 993.03 622.75 984.86 622.03C978.7 621.49 970.39 618.64 972.45 614.57Z" fill="white"/>
<path fill-rule="evenodd" clip-rule="evenodd" d="M993.103 626.543C999.55 628.052 1006.84 629.76 1013.07 629.76C1018.35 629.76 1022.85 628.54 1025.44 624.95C1029.33 619.49 1027.56 609.63 1025.99 600.93C1025.49 598.14 1025.02 595.51 1024.89 593.68L1024.34 585.89C1023.65 576.15 1022.96 566.4 1022.41 556.65C1021.05 532.44 1022.5 512.35 1025.45 485.84C1026.24 478.75 1025.81 469.69 1025.35 460.1C1024.67 445.9 1023.9 429.8 1027.56 420.25C1028.12 418.764 1028.9 417.145 1029.72 415.457L1029.78 415.34C1032.56 409.58 1035.71 403.05 1033.51 397.44C1032.35 394.51 1029.88 392.28 1026.17 390.83C1024.11 390.03 1023.08 389.63 1021.78 390.5L1021.01 391.08C1013.67 391.88 1007.18 391.51 1001.13 389.97C996 388.67 992.02 389.27 989.29 391.78C983.87 396.77 985.7 407.67 986.8 414.18C991.42 441.63 992.14 468.66 988.94 494.51C988.178 500.681 987.247 506.969 986.341 513.09C986.26 513.635 986.18 514.178 986.1 514.72L986.086 514.81C983.001 535.552 979.813 556.981 981.67 578.45L981.82 580.2L981.822 580.223C982.801 591.226 983.813 602.595 974.15 609.35L973.59 609.73L973.569 609.744C972.254 610.641 970.775 611.649 969.94 613.3C969.08 615 969.11 616.83 970.02 618.46C972.37 622.68 980.29 624.45 984.6 624.83C986.5 625 989.56 625.71 993.09 626.54L993.103 626.543ZM974.93 615.9L974.96 615.84C975.15 615.47 976.11 614.82 976.73 614.41L977.36 613.98C989.7 605.36 988.43 591.14 987.41 579.72L987.26 577.98C985.462 557.165 988.602 536.051 991.639 515.633L991.65 515.56L991.769 514.754C992.722 508.336 993.704 501.727 994.51 495.21C997.78 468.82 997.05 441.24 992.33 413.25C991.54 408.58 989.9 398.84 993.08 395.92C994.31 394.78 996.55 394.61 999.72 395.42C1006.46 397.14 1013.66 397.55 1021.71 396.66C1022.69 396.55 1023.46 396.34 1024.06 396.05C1024.07 396.055 1024.08 396.057 1024.08 396.06C1024.09 396.062 1024.1 396.065 1024.11 396.07C1026.34 396.94 1027.7 398.06 1028.26 399.5C1029.57 402.823 1026.99 408.159 1024.71 412.872L1024.7 412.9C1023.79 414.78 1022.92 416.6 1022.29 418.24C1018.21 428.89 1018.97 444.89 1019.71 460.36L1019.71 460.465C1020.15 469.786 1020.57 478.595 1019.83 485.21C1016.84 512.02 1015.38 532.36 1016.76 556.96C1017.31 566.74 1018 576.51 1018.7 586.28L1019.25 594.06C1019.4 596.144 1019.86 598.725 1020.39 601.71L1020.43 601.91L1020.44 601.944C1021.6 608.405 1023.35 618.146 1020.83 621.68C1017.42 626.48 1002.99 623.1 994.37 621.08L994.369 621.08C990.629 620.2 987.4 619.44 985.09 619.24C979.47 618.74 975.31 616.67 974.93 615.9Z" fill="#1A4A67"/>
<path d="M970.7 327.96C959.28 336.59 943.86 351.9 932.87 334.1C927.12 324.78 923.06 314.55 917.69 305.01C913.88 295.12 909.31 284.68 909.66 273.86C910.02 262.81 909.37 247.91 908.31 245.2C907.25 242.49 894.57 230.59 894.41 235.54C894.25 240.49 901.49 258.66 892.07 250.06C889.24 247.48 890.91 252.26 891.87 258.01C892.83 263.76 900.5 271.37 900.5 271.37C908.11 303.35 905.9 341.25 941.27 356.95C951.09 361.31 966.54 347.22 974.42 342.38C977.21 340.66 1004.82 321.69 1005.56 322.42C1002.31 319.23 999.06 316.03 995.81 312.84C995.03 312.07 994.18 311.27 993.1 311.11C991.84 310.92 990.64 311.65 989.6 312.38C984.41 316.02 979.87 320.48 975 324.54C973.6 325.71 972.17 326.85 970.7 327.96Z" fill="white"/>
<path fill-rule="evenodd" clip-rule="evenodd" d="M940.13 359.53C941.8 360.27 943.55 360.59 945.36 360.59C953.554 360.59 962.882 353.941 970.102 348.795L970.25 348.69L970.282 348.667C972.399 347.146 974.308 345.775 975.91 344.79C976.649 344.337 979.086 342.7 982.303 340.538L982.45 340.44C988.91 336.1 1004.06 325.93 1006.21 325.11C1005.69 325.31 1004.51 325.3 1003.62 324.43L1007.55 320.42L997.79 310.84C996.9 309.96 995.55 308.64 993.53 308.33C990.999 307.961 988.984 309.38 988 310.073L987.99 310.08C984.407 312.588 981.121 315.482 977.945 318.28L977.9 318.32C976.35 319.69 974.79 321.06 973.21 322.38C971.84 323.53 970.44 324.64 969.01 325.72C967.845 326.608 966.634 327.56 965.387 328.541L965.21 328.68L965.189 328.696C958.134 334.262 950.153 340.559 943.55 339.39C940.45 338.85 937.74 336.63 935.27 332.63C932.09 327.48 929.36 321.89 926.73 316.48L926.666 316.349C924.646 312.21 922.555 307.927 920.25 303.81L919.18 301.06L919.172 301.041C915.735 292.237 912.18 283.133 912.48 273.96C912.8 264.24 912.36 247.82 910.94 244.19C909.84 241.38 899.42 230.84 894.75 231.61C892.91 231.92 891.68 233.43 891.61 235.46C891.55 237.258 892.142 239.866 892.827 242.882L892.84 242.94C892.866 243.054 892.892 243.171 892.92 243.292C893.231 244.662 893.632 246.421 893.88 247.91C892.27 246.49 890.76 246.16 889.37 246.95C887.07 248.25 887.57 250.71 888.4 254.79C888.63 255.92 888.88 257.18 889.1 258.49C890.03 264.1 895.8 270.56 897.94 272.79C899.391 279.028 900.501 285.617 901.578 292.009L901.62 292.26L901.621 292.268C906.091 318.915 910.713 346.471 940.13 359.53ZM907.16 291.32C906.04 284.61 904.87 277.67 903.31 271.04L903.29 270.22L902.47 269.4C900.04 266.96 895.26 261.34 894.64 257.58C894.48 256.64 894.31 255.73 894.14 254.87C895.27 255.28 896.49 255.35 897.66 254.67C900.84 252.82 899.78 248.16 898.31 241.71C898.276 241.558 898.241 241.405 898.206 241.252C897.987 240.282 897.762 239.288 897.59 238.39C900.62 240.54 905.02 244.85 905.7 246.24C906.41 248.12 907.26 261.77 906.86 273.78C906.52 284.11 910.29 293.77 913.94 303.11L915.07 306.03L915.25 306.4C917.54 310.47 919.64 314.78 921.67 318.95L921.868 319.355C924.506 324.749 927.231 330.322 930.48 335.58C933.8 340.95 937.86 344.1 942.57 344.93C951.668 346.538 960.687 339.418 968.66 333.124L968.69 333.1C969.96 332.09 971.2 331.11 972.4 330.21C973.9 329.07 975.37 327.9 976.82 326.7C978.44 325.34 980.03 323.94 981.62 322.54C984.83 319.7 987.88 317.03 991.22 314.68C992.25 313.96 992.6 313.89 992.68 313.89C992.94 313.95 993.58 314.58 993.85 314.85L1000.78 321.66C996.97 323.92 990.57 328.2 979.3 335.77C978.906 336.034 978.523 336.29 978.154 336.537C975.527 338.294 973.581 339.595 972.95 339.99C971.21 341.06 969.14 342.54 966.95 344.11C959.69 349.32 948.7 357.19 942.41 354.39C915.76 342.55 911.58 317.67 907.16 291.32Z" fill="#1A4A67"/>
<path d="M987.66 399.05C987.66 397.86 985.68 367.04 990.03 347.28C994.38 327.52 990.03 310.53 1005.05 298.67C1020.07 286.81 1032.32 302.62 1036.27 310.92C1040.22 319.22 1036.65 361.63 1037.21 375.59C1037.78 389.86 1037.21 387.28 1040.36 402.64C1042.37 412.46 1061.17 435.54 1037.44 428.63C1029.38 426.28 1012.48 425.27 1005.58 422.83C999.41 420.65 992.1 419.11 987.22 414.06C985.68 412.49 987.66 399.05 987.66 399.05Z" fill="#37C1D3"/>
<path fill-rule="evenodd" clip-rule="evenodd" d="M1036.65 431.32C1039 432.01 1041.85 432.7 1044.48 432.7C1046.92 432.7 1049.17 432.11 1050.65 430.33C1054.2 426.12 1050.71 418.96 1047.01 411.39L1046.92 411.208C1045.27 407.805 1043.57 404.31 1043.11 402.05C1040.5 389.31 1040.5 389.31 1040.22 381.03L1040.02 375.46C1039.84 370.94 1040.11 363.06 1040.4 354.71C1041.18 331.97 1041.53 315.43 1038.8 309.7C1035.53 302.84 1028.61 294.09 1019.85 292.05C1014.23 290.75 1008.66 292.23 1003.3 296.46C991.82 305.53 990.71 317.48 989.54 330.13C989.05 335.45 988.54 340.95 987.28 346.67C984.69 358.47 983.81 376.73 984.81 398.11L984.84 398.89C982.72 413.45 984.38 415.18 985.19 416.01C989.627 420.607 995.712 422.568 1001.08 424.297L1001.09 424.3L1001.37 424.389C1002.48 424.748 1003.58 425.101 1004.64 425.48C1008.52 426.85 1014.83 427.73 1021.52 428.66C1027.16 429.44 1033 430.26 1036.65 431.32ZM1002.81 418.96C997.98 417.41 992.99 415.8 989.54 412.43C989.19 410.64 989.7 404.46 990.44 399.47L990.47 399.06C990.47 398.952 990.456 398.651 990.434 398.173C990.43 398.076 990.425 397.972 990.42 397.86C989.45 376.96 990.28 359.21 992.77 347.89C994.099 341.872 994.621 336.247 995.127 330.8L995.14 330.66C996.29 318.26 997.2 308.46 1006.79 300.89C1010.8 297.73 1014.66 296.63 1018.58 297.55C1025.86 299.24 1031.53 307.52 1033.73 312.14C1036.08 317.07 1035.33 338.73 1034.78 354.54C1034.47 363.36 1034.21 370.98 1034.4 375.71L1034.6 381.25C1034.88 389.84 1034.94 390.25 1037.6 403.21C1038.21 406.202 1040.02 409.91 1041.94 413.847L1041.96 413.88L1042.03 414.025C1043.73 417.521 1047.52 425.34 1046.35 426.73C1046.34 426.74 1045.09 427.94 1038.22 425.93C1034.18 424.76 1028.13 423.91 1022.29 423.1C1016.17 422.25 1009.85 421.37 1006.51 420.19C1005.55 419.848 1004.57 419.531 1003.58 419.209C1003.32 419.126 1003.07 419.044 1002.81 418.96Z" fill="#1A4A67"/>
<path d="M979.27 314.52C979.27 314.52 1007.01 284.95 1017.65 298.37C1028.29 311.79 990.63 339.46 990.63 339.46L973.54 317.24L979.27 314.52Z" fill="#78DFE8"/>
<path fill-rule="evenodd" clip-rule="evenodd" d="M969.19 316.19L990.08 343.35L992.3 341.73L992.319 341.716C993.698 340.691 1020.18 321.014 1022.22 305.86C1022.69 302.32 1021.9 299.21 1019.85 296.63C1017.61 293.8 1014.51 292.23 1010.88 292.08C997.96 291.52 980.88 308.77 977.59 312.21L969.19 316.19ZM991.16 335.53L977.9 318.28L980.96 316.83L981.33 316.44C986.28 311.16 1000.99 297.68 1010.27 297.68C1010.4 297.68 1010.53 297.68 1010.66 297.69C1012.69 297.77 1014.22 298.54 1015.46 300.11C1016.54 301.47 1016.93 303.11 1016.66 305.1C1015.35 314.84 999.44 329.06 991.16 335.53Z" fill="#1A4A67"/>
<path d="M996.76 211.52C987.26 220.55 984.1 234.43 983.71 247.53C983.51 254.16 983.91 260.87 985.72 267.25C987.73 274.37 991.43 280.87 994.49 287.6C995.02 288.77 995.54 290 995.43 291.28C995.29 292.8 994.29 294.08 993.43 295.34C987.73 303.75 987.76 315.66 993.51 324.04C995.53 326.98 998.37 329.6 1001.87 330.25C1006.23 331.07 1012.39 329.6 1013.86 333.79C1014.59 335.88 1013.42 338.26 1014.11 340.36C1015.13 343.45 1019.31 343.97 1022.51 343.35C1025.71 342.73 1029.25 341.61 1032.03 343.31C1035.68 345.55 1035.8 351.45 1039.6 353.41C1041.03 354.15 1042.71 354.16 1044.33 354.16C1050.97 354.15 1053.95 359.19 1060.59 359.18C1063.56 359.17 1070.39 354.05 1072.83 352.36C1075.27 350.68 1076.34 346.72 1074.14 344.74C1072.01 342.82 1068.11 343.68 1066.4 341.38C1063.67 337.68 1070.5 333.07 1069.37 328.61C1068.99 327.1 1067.71 325.91 1067.43 324.38C1067.1 322.56 1068.25 320.84 1068.78 319.06C1070.52 313.26 1065.64 307.71 1060.93 303.91C1056.22 300.11 1050.74 295.72 1050.76 289.67C1050.78 282.52 1058.62 277.46 1059.39 270.34C1060.21 262.74 1052.68 256.17 1053.32 248.56C1053.71 243.92 1057.1 239.96 1057.59 235.33C1058.16 229.99 1054.82 225.11 1051.64 220.78C1049.26 217.54 1046.82 214.24 1043.52 211.96C1039.05 208.87 1035.57 210.94 1031.15 209.76C1027.21 208.71 1024.41 205.23 1019.97 204.43C1011.81 202.95 1002.74 205.83 996.76 211.52Z" fill="#1A4A67"/>
</svg>
